<svg id="Layer_1" data-name="Layer 1" xmlns="http://www.w3.org/2000/svg" width="589" height="283" viewBox="0 0 589 283">
  <defs>
    <style>
      .cls-1 {
        fill: #484748;
      }

      .cls-2 {
        fill: #fff;
      }
    </style>
  </defs>
  <title>deeplearning</title>
  <g>
    <rect class="cls-1" x="161.93" y="56.36" width="55.82" height="2.63" transform="translate(-5.19 94.13) rotate(-27.49)"/>
    <polygon class="cls-1" points="212.28 41.5 215.97 48.59 217.66 43.2 212.28 41.5"/>
  </g>
  <g>
    <rect class="cls-1" x="189.29" y="52.92" width="2.63" height="53.34" transform="translate(51.16 231.97) rotate(-70.2)"/>
    <polygon class="cls-1" points="216.54 84.68 213.84 92.2 218.95 89.8 216.54 84.68"/>
  </g>
  <g>
    <rect class="cls-1" x="192.56" y="59.03" width="2.63" height="88.4" transform="translate(-20.46 151.24) rotate(-40.66)"/>
    <polygon class="cls-1" points="225.36 133.75 219.3 138.96 224.93 139.39 225.36 133.75"/>
  </g>
  <g>
    <rect class="cls-1" x="193.77" y="62.17" width="2.63" height="133.81" transform="translate(-37.17 101.2) rotate(-26.64)"/>
    <polygon class="cls-1" points="228.42 186.61 221.28 190.19 226.64 191.97 228.42 186.61"/>
  </g>
  <g>
    <rect class="cls-1" x="146.88" y="91.15" width="88.2" height="2.63" transform="translate(2.78 190.47) rotate(-53.34)"/>
    <polygon class="cls-1" points="213.78 55.13 220.19 59.9 219.38 54.31 213.78 55.13"/>
  </g>
  <g>
    <rect class="cls-1" x="162.71" y="115.48" width="53.75" height="2.63" transform="translate(-31.25 88.24) rotate(-24.27)"/>
    <polygon class="cls-1" points="211.95 102.33 215.24 109.61 217.24 104.33 211.95 102.33"/>
  </g>
  <g>
    <rect class="cls-1" x="188.43" y="109.48" width="2.63" height="53.48" transform="translate(-3.62 267.25) rotate(-69.8)"/>
    <polygon class="cls-1" points="215.72 141.53 212.96 149.02 218.09 146.65 215.72 141.53"/>
  </g>
  <g>
    <rect class="cls-1" x="190.04" y="118.24" width="2.63" height="86.21" transform="translate(-58.89 156.38) rotate(-39)"/>
    <polygon class="cls-1" points="221.25 191.91 215.04 196.94 220.66 197.53 221.25 191.91"/>
  </g>
  <g>
    <rect class="cls-1" x="187.38" y="169.32" width="2.63" height="52.59" transform="translate(-62.42 299.59) rotate(-68.52)"/>
    <polygon class="cls-1" points="214.13 201.32 211.2 208.76 216.38 206.5 214.13 201.32"/>
  </g>
  <g>
    <rect class="cls-1" x="161.82" y="174.64" width="52.91" height="2.63" transform="translate(-52.67 84.55) rotate(-22.29)"/>
    <polygon class="cls-1" points="210.74 162.43 213.77 169.82 215.96 164.61 210.74 162.43"/>
  </g>
  <g>
    <rect class="cls-1" x="149.24" y="153.46" width="82.81" height="2.63" transform="translate(-51.94 192.94) rotate(-48.01)"/>
    <polygon class="cls-1" points="215.02 121.73 220.96 127.07 220.66 121.43 215.02 121.73"/>
  </g>
  <g>
    <rect class="cls-1" x="127.3" y="125.7" width="132.51" height="2.63" transform="translate(-9.35 238.51) rotate(-62.06)"/>
    <polygon class="cls-1" points="220.81 67.08 227.87 70.83 226.22 65.43 220.81 67.08"/>
  </g>
  <g>
    <circle class="cls-2" cx="467.45" cy="98.2" r="25.65"/>
    <path class="cls-1" d="M467.45,125.17a27,27,0,1,1,27-27A27,27,0,0,1,467.45,125.17Zm0-51.3A24.33,24.33,0,1,0,491.78,98.2,24.36,24.36,0,0,0,467.45,73.87Z"/>
  </g>
  <g>
    <circle class="cls-2" cx="467.45" cy="155.92" r="25.65"/>
    <path class="cls-1" d="M467.45,182.88a27,27,0,1,1,27-27A27,27,0,0,1,467.45,182.88Zm0-51.3a24.34,24.34,0,1,0,24.34,24.34A24.36,24.36,0,0,0,467.45,131.58Z"/>
  </g>
  <g>
    <rect class="cls-1" x="407.8" y="28.85" width="2.63" height="66" transform="translate(97.54 334.1) rotate(-49.74)"/>
    <polygon class="cls-1" points="436.47 79.78 431.31 85.88 436.94 85.41 436.47 79.78"/>
  </g>
  <g>
    <rect class="cls-1" x="411.41" y="32.18" width="2.63" height="110.78" transform="translate(15.92 230.95) rotate(-31.85)"/>
    <polygon class="cls-1" points="445.06 132.06 438.28 136.28 443.78 137.56 445.06 132.06"/>
  </g>
  <g>
    <rect class="cls-1" x="383.5" y="96.49" width="49.98" height="2.63"/>
    <polygon class="cls-1" points="432.94 93.81 432.94 101.8 436.94 97.81 432.94 93.81"/>
  </g>
  <g>
    <rect class="cls-1" x="408.03" y="86.14" width="2.63" height="68.93" transform="translate(48.14 347.85) rotate(-48.59)"/>
    <polygon class="cls-1" points="437.44 140.05 432.15 146.04 437.79 145.69 437.44 140.05"/>
  </g>
  <g>
    <rect class="cls-1" x="375.1" y="131.2" width="66.8" height="2.63" transform="translate(14.88 304.26) rotate(-41.55)"/>
    <polygon class="cls-1" points="430.44 107.73 435.74 113.71 436.08 108.07 430.44 107.73"/>
  </g>
  <g>
    <rect class="cls-1" x="382.64" y="153.38" width="49.99" height="2.63" transform="translate(-2.44 6.59) rotate(-0.92)"/>
    <polygon class="cls-1" points="432.02 150.31 432.15 158.3 436.08 154.24 432.02 150.31"/>
  </g>
  <g>
    <rect class="cls-1" x="358.26" y="164.44" width="107.25" height="2.63" transform="translate(55.71 430.84) rotate(-58.58)"/>
    <polygon class="cls-1" points="436.15 118.37 442.97 122.54 441.64 117.05 436.15 118.37"/>
  </g>
  <g>
    <rect class="cls-1" x="375.31" y="189.08" width="67.59" height="2.63" transform="translate(-27.44 304.62) rotate(-39.62)"/>
    <polygon class="cls-1" points="432.17 166.11 437.26 172.26 437.79 166.64 432.17 166.11"/>
  </g>
  <g>
    <circle class="cls-2" cx="357.65" cy="41.49" r="25.65"/>
    <path class="cls-1" d="M357.65,68.45a27,27,0,1,1,27-27A27,27,0,0,1,357.65,68.45Zm0-51.3A24.34,24.34,0,1,0,382,41.49,24.36,24.36,0,0,0,357.65,17.15Z"/>
  </g>
  <g>
    <circle class="cls-2" cx="357.65" cy="99.6" r="25.65"/>
    <path class="cls-1" d="M357.65,126.56a27,27,0,1,1,27-27A27,27,0,0,1,357.65,126.56Zm0-51.3A24.33,24.33,0,1,0,382,99.6,24.36,24.36,0,0,0,357.65,75.26Z"/>
  </g>
  <g>
    <circle class="cls-2" cx="357.65" cy="156.46" r="25.65"/>
    <path class="cls-1" d="M357.65,183.42a27,27,0,1,1,27-27A27,27,0,0,1,357.65,183.42Zm0-51.3A24.33,24.33,0,1,0,382,156.46,24.36,24.36,0,0,0,357.65,132.12Z"/>
  </g>
  <g>
    <circle class="cls-2" cx="357.65" cy="213.74" r="25.65"/>
    <path class="cls-1" d="M357.65,240.71a27,27,0,1,1,27-27A27,27,0,0,1,357.65,240.71Zm0-51.3A24.34,24.34,0,1,0,382,213.74,24.36,24.36,0,0,0,357.65,189.41Z"/>
  </g>
  <g>
    <rect class="cls-1" x="274.29" y="41.17" width="48.11" height="2.63"/>
    <polygon class="cls-1" points="321.86 38.49 321.86 46.48 325.86 42.49 321.86 38.49"/>
  </g>
  <g>
    <rect class="cls-1" x="296.87" y="32.69" width="2.63" height="68.18" transform="translate(35.71 223.25) rotate(-43.42)"/>
    <polygon class="cls-1" points="324.16 88.41 318.35 93.9 324 94.05 324.16 88.41"/>
  </g>
  <g>
    <rect class="cls-1" x="297.58" y="36.66" width="2.63" height="118.15" transform="translate(-12.72 133.15) rotate(-24.61)"/>
    <polygon class="cls-1" points="326.9 147.29 319.63 150.62 324.93 152.59 326.9 147.29"/>
  </g>
  <g>
    <rect class="cls-1" x="297.57" y="37.43" width="2.63" height="174.97" transform="translate(-23.26 90.83) rotate(-16.64)"/>
    <polygon class="cls-1" points="327.61 207.08 319.96 209.37 324.93 212.05 327.61 207.08"/>
  </g>
  <g>
    <rect class="cls-1" x="264.65" y="76.03" width="67.86" height="2.63" transform="translate(27.86 225.14) rotate(-43.15)"/>
    <polygon class="cls-1" points="320.21 51.59 325.68 57.42 325.86 51.78 320.21 51.59"/>
  </g>
  <g>
    <rect class="cls-1" x="295.41" y="79.32" width="2.63" height="45" transform="translate(172.45 389.86) rotate(-85.6)"/>
    <polygon class="cls-1" points="318.93 99.52 318.32 107.48 322.61 103.81 318.93 99.52"/>
  </g>
  <g>
    <rect class="cls-1" x="296.51" y="92.09" width="2.63" height="76.49" transform="translate(-15.85 215.75) rotate(-38.87)"/>
    <polygon class="cls-1" points="324.6 157.19 318.38 162.2 324 162.81 324.6 157.19"/>
  </g>
  <g>
    <rect class="cls-1" x="299.26" y="92.86" width="2.63" height="107.2" transform="translate(-32.46 176.24) rotate(-31.09)"/>
    <polygon class="cls-1" points="331.4 189.84 324.56 193.97 330.04 195.33 331.4 189.84"/>
  </g>
  <g>
    <rect class="cls-1" x="246.32" y="109.32" width="109.91" height="2.63" transform="translate(50.97 311.52) rotate(-58.91)"/>
    <polygon class="cls-1" points="325.95 61.96 332.79 66.09 331.43 60.6 325.95 61.96"/>
  </g>
  <g>
    <rect class="cls-1" x="264.43" y="134.1" width="66.89" height="2.63" transform="translate(-12.58 238.79) rotate(-42.86)"/>
    <polygon class="cls-1" points="319.28 110.1 324.72 115.96 324.93 110.31 319.28 110.1"/>
  </g>
  <g>
    <rect class="cls-1" x="296.82" y="137.64" width="2.63" height="50.23" transform="translate(88.58 430.08) rotate(-80.54)"/>
    <polygon class="cls-1" points="323.04 162.85 321.73 170.74 326.32 167.45 323.04 162.85"/>
  </g>
  <g>
    <rect class="cls-1" x="297.19" y="147.82" width="2.63" height="81.66" transform="translate(-51.68 234.09) rotate(-39.69)"/>
    <polygon class="cls-1" points="327.31 217.11 321.16 222.21 326.79 222.74 327.31 217.11"/>
  </g>
  <g>
    <rect class="cls-1" x="227.58" y="139.84" width="153.33" height="2.63" transform="translate(51.02 361.08) rotate(-65.86)"/>
    <polygon class="cls-1" points="331.73 70.05 339.02 73.32 337.01 68.04 331.73 70.05"/>
  </g>
  <g>
    <rect class="cls-1" x="247.64" y="165.03" width="104.4" height="2.63" transform="translate(-2.61 327.91) rotate(-57.13)"/>
    <polygon class="cls-1" points="324.52 120.79 331.23 125.13 330.04 119.6 324.52 120.79"/>
  </g>
  <g>
    <rect class="cls-1" x="268.48" y="192.58" width="61.16" height="2.63" transform="translate(-57.19 182.85) rotate(-31.18)"/>
    <polygon class="cls-1" points="322.7 174.93 326.83 181.76 328.18 176.28 322.7 174.93"/>
  </g>
  <g>
    <rect class="cls-1" x="297.61" y="192.21" width="2.63" height="55.64" transform="translate(-12.62 421.8) rotate(-69.29)"/>
    <polygon class="cls-1" points="325.86 225.95 323.03 233.42 328.18 231.1 325.86 225.95"/>
  </g>
  <g>
    <circle class="cls-2" cx="248.24" cy="41.49" r="25.65"/>
    <path class="cls-1" d="M248.24,68.45a27,27,0,1,1,27-27A27,27,0,0,1,248.24,68.45Zm0-51.3a24.34,24.34,0,1,0,24.34,24.34A24.36,24.36,0,0,0,248.24,17.15Z"/>
  </g>
  <g>
    <circle class="cls-2" cx="248.24" cy="99.6" r="25.65"/>
    <path class="cls-1" d="M248.24,126.56a27,27,0,1,1,27-27A27,27,0,0,1,248.24,126.56Zm0-51.3A24.33,24.33,0,1,0,272.58,99.6,24.36,24.36,0,0,0,248.24,75.26Z"/>
  </g>
  <g>
    <circle class="cls-2" cx="248.24" cy="156.46" r="25.65"/>
    <path class="cls-1" d="M248.24,183.42a27,27,0,1,1,27-27A27,27,0,0,1,248.24,183.42Zm0-51.3a24.33,24.33,0,1,0,24.34,24.33A24.36,24.36,0,0,0,248.24,132.12Z"/>
  </g>
  <g>
    <circle class="cls-2" cx="248.24" cy="213.74" r="25.65"/>
    <path class="cls-1" d="M248.24,240.71a27,27,0,1,1,27-27A27,27,0,0,1,248.24,240.71Zm0-51.3a24.34,24.34,0,1,0,24.34,24.34A24.36,24.36,0,0,0,248.24,189.41Z"/>
  </g>
  <g>
    <rect class="cls-1" x="58.43" y="65.56" width="38.78" height="3.29"/>
    <circle class="cls-1" cx="58.59" cy="67.21" r="3.09"/>
    <polygon class="cls-1" points="96.54 62.21 96.54 72.2 101.54 67.21 96.54 62.21"/>
  </g>
  <g>
    <rect class="cls-1" x="58.43" y="124.76" width="38.78" height="3.29"/>
    <circle class="cls-1" cx="58.59" cy="126.4" r="3.09"/>
    <polygon class="cls-1" points="96.54 121.41 96.54 131.4 101.54 126.4 96.54 121.41"/>
  </g>
  <g>
    <rect class="cls-1" x="58.43" y="186.58" width="38.78" height="3.29"/>
    <circle class="cls-1" cx="58.59" cy="188.23" r="3.09"/>
    <polygon class="cls-1" points="96.54 183.23 96.54 193.22 101.54 188.23 96.54 183.23"/>
  </g>
  <g>
    <rect class="cls-1" x="506.67" y="95.16" width="38.78" height="3.29"/>
    <circle class="cls-1" cx="506.82" cy="96.81" r="3.09"/>
    <polygon class="cls-1" points="544.78 91.81 544.78 101.8 549.77 96.81 544.78 91.81"/>
  </g>
  <g>
    <rect class="cls-1" x="506.67" y="156.99" width="38.78" height="3.29"/>
    <circle class="cls-1" cx="506.82" cy="158.63" r="3.09"/>
    <polygon class="cls-1" points="544.78 153.64 544.78 163.63 549.77 158.63 544.78 153.64"/>
  </g>
  <g>
    <circle class="cls-2" cx="138.45" cy="70.53" r="25.65"/>
    <path class="cls-1" d="M138.45,97.49a27,27,0,1,1,27-27A27,27,0,0,1,138.45,97.49Zm0-51.3a24.34,24.34,0,1,0,24.34,24.34A24.36,24.36,0,0,0,138.45,46.19Z"/>
  </g>
  <g>
    <circle class="cls-2" cx="138.45" cy="127.81" r="25.65"/>
    <path class="cls-1" d="M138.45,154.78a27,27,0,1,1,27-27A27,27,0,0,1,138.45,154.78Zm0-51.3a24.33,24.33,0,1,0,24.34,24.33A24.36,24.36,0,0,0,138.45,103.48Z"/>
  </g>
  <g>
    <circle class="cls-2" cx="138.45" cy="185.53" r="25.65"/>
    <path class="cls-1" d="M138.45,212.49a27,27,0,1,1,27-27A27,27,0,0,1,138.45,212.49Zm0-51.3a24.33,24.33,0,1,0,24.34,24.33A24.36,24.36,0,0,0,138.45,161.19Z"/>
  </g>
  <g>
    <path class="cls-1" d="M547.41,127a4.16,4.16,0,1,1,4.16,4.14A4.08,4.08,0,0,1,547.41,127Zm.91,0a3.25,3.25,0,1,0,3.25-3.3A3.26,3.26,0,0,0,548.32,127Z"/>
    <path class="cls-1" d="M558,128.93a1.69,1.69,0,0,0,.24,1.07,1.19,1.19,0,0,0,1.75,0,1.69,1.69,0,0,0,.24-1.07V126h.86v3a2,2,0,0,1-.46,1.5,2.17,2.17,0,0,1-3,0,2,2,0,0,1-.46-1.5v-3H558Z"/>
    <path class="cls-1" d="M563.63,126.81V131h-.86v-4.19h-.53V126h.53v-1.8h.86V126h.86v.79Z"/>
    <path class="cls-1" d="M566.17,133.76h-.86V126h.86v.7a2.14,2.14,0,0,1,1.7-.82,2.46,2.46,0,0,1,2.42,2.64,2.42,2.42,0,0,1-2.39,2.6,2.11,2.11,0,0,1-1.74-.84Zm3.24-5.22a1.71,1.71,0,0,0-1.63-1.87,1.73,1.73,0,0,0-1.66,1.86,1.7,1.7,0,0,0,1.67,1.85A1.68,1.68,0,0,0,569.41,128.54Z"/>
    <path class="cls-1" d="M572.49,128.93a1.69,1.69,0,0,0,.24,1.07,1.19,1.19,0,0,0,1.75,0,1.69,1.69,0,0,0,.24-1.07V126h.86v3a2,2,0,0,1-.46,1.5,2.17,2.17,0,0,1-3,0,2,2,0,0,1-.46-1.5v-3h.86Z"/>
    <path class="cls-1" d="M578.1,126.81V131h-.86v-4.19h-.53V126h.53v-1.8h.86V126H579v.79Z"/>
    <path class="cls-1" d="M581.83,127.17a.76.76,0,0,0-.7-.5.55.55,0,0,0-.6.56c0,.36.24.47.8.71a3,3,0,0,1,1.25.77,1.18,1.18,0,0,1,.26.8,1.58,1.58,0,0,1-1.71,1.63,1.78,1.78,0,0,1-1.74-1.27l.74-.31a1.13,1.13,0,0,0,1,.82.77.77,0,0,0,.82-.79c0-.47-.34-.62-.8-.83A3.25,3.25,0,0,1,580,128a1.08,1.08,0,0,1-.23-.73,1.34,1.34,0,0,1,1.45-1.39,1.44,1.44,0,0,1,1.37.9Z"/>
  </g>
  <g>
    <path class="cls-1" d="M9.28,123v8H8.39v-8Z"/>
    <path class="cls-1" d="M11.12,126H12v.58a1.76,1.76,0,0,1,1.43-.7,1.69,1.69,0,0,1,1.43.68,2.22,2.22,0,0,1,.29,1.33V131h-.86v-3.06A1.46,1.46,0,0,0,14,127a1,1,0,0,0-.82-.36,1.09,1.09,0,0,0-.87.38A2.1,2.1,0,0,0,12,128.4V131h-.86Z"/>
    <path class="cls-1" d="M17.63,133.76h-.86V126h.86v.7a2.14,2.14,0,0,1,1.7-.82,2.46,2.46,0,0,1,2.42,2.64,2.42,2.42,0,0,1-2.39,2.6,2.11,2.11,0,0,1-1.74-.84Zm3.24-5.22a1.71,1.71,0,0,0-1.63-1.87,1.73,1.73,0,0,0-1.66,1.86,1.7,1.7,0,0,0,1.67,1.85A1.68,1.68,0,0,0,20.87,128.54Z"/>
    <path class="cls-1" d="M23.94,128.93a1.69,1.69,0,0,0,.24,1.07,1.19,1.19,0,0,0,1.75,0,1.69,1.69,0,0,0,.24-1.07V126H27v3a2,2,0,0,1-.46,1.5,2.17,2.17,0,0,1-3,0,2,2,0,0,1-.46-1.5v-3h.86Z"/>
    <path class="cls-1" d="M29.55,126.81V131h-.86v-4.19h-.53V126h.53v-1.8h.86V126h.86v.79Z"/>
    <path class="cls-1" d="M33.29,127.17a.76.76,0,0,0-.7-.5.55.55,0,0,0-.6.56c0,.36.24.47.8.71a3,3,0,0,1,1.25.77,1.18,1.18,0,0,1,.26.8,1.58,1.58,0,0,1-1.71,1.63,1.78,1.78,0,0,1-1.74-1.27l.74-.31a1.13,1.13,0,0,0,1,.82.77.77,0,0,0,.82-.79c0-.47-.34-.62-.8-.83A3.25,3.25,0,0,1,31.4,128a1.08,1.08,0,0,1-.23-.73,1.34,1.34,0,0,1,1.45-1.39,1.44,1.44,0,0,1,1.37.9Z"/>
  </g>
  <g>
    <path class="cls-1" d="M445.4,245a4.16,4.16,0,1,1,4.16,4.14A4.08,4.08,0,0,1,445.4,245Zm.91,0a3.25,3.25,0,1,0,3.25-3.3A3.26,3.26,0,0,0,446.31,245Z"/>
    <path class="cls-1" d="M456,246.93a1.69,1.69,0,0,0,.24,1.07,1.19,1.19,0,0,0,1.75,0,1.69,1.69,0,0,0,.24-1.07V244h.86v3a2,2,0,0,1-.46,1.5,2.17,2.17,0,0,1-3,0,2,2,0,0,1-.46-1.5v-3H456Z"/>
    <path class="cls-1" d="M461.62,244.81V249h-.86v-4.19h-.53V244h.53v-1.8h.86V244h.86v.79Z"/>
    <path class="cls-1" d="M464.16,251.76h-.86V244h.86v.7a2.14,2.14,0,0,1,1.7-.82,2.46,2.46,0,0,1,2.42,2.64,2.42,2.42,0,0,1-2.39,2.6,2.11,2.11,0,0,1-1.74-.84Zm3.24-5.22a1.71,1.71,0,0,0-1.63-1.87,1.73,1.73,0,0,0-1.66,1.86,1.7,1.7,0,0,0,1.67,1.85A1.68,1.68,0,0,0,467.4,246.54Z"/>
    <path class="cls-1" d="M470.47,246.93a1.69,1.69,0,0,0,.24,1.07,1.19,1.19,0,0,0,1.75,0,1.69,1.69,0,0,0,.24-1.07V244h.86v3a2,2,0,0,1-.46,1.5,2.17,2.17,0,0,1-3,0,2,2,0,0,1-.46-1.5v-3h.86Z"/>
    <path class="cls-1" d="M476.09,244.81V249h-.86v-4.19h-.53V244h.53v-1.8h.86V244H477v.79Z"/>
    <path class="cls-1" d="M481.67,241v7.16h2.21V249h-3.09v-8Z"/>
    <path class="cls-1" d="M488.68,244h.86v5h-.86v-.7a2.1,2.1,0,0,1-1.7.84,2.63,2.63,0,0,1,0-5.24,2.06,2.06,0,0,1,1.7.83Zm-3.24,2.48a1.66,1.66,0,0,0,1.63,1.87,1.86,1.86,0,0,0,0-3.71A1.65,1.65,0,0,0,485.44,246.51Z"/>
    <path class="cls-1" d="M492.75,248.53,490.45,244h1l1.76,3.56,1.62-3.56h1l-3.66,7.74h-1Z"/>
    <path class="cls-1" d="M501.11,247.73a3,3,0,0,1-.61.8,2.42,2.42,0,0,1-1.66.61,2.38,2.38,0,0,1-2.46-2.6,2.41,2.41,0,0,1,2.41-2.64,2.23,2.23,0,0,1,1.88.91,3.34,3.34,0,0,1,.47,1.87h-3.87a1.59,1.59,0,0,0,1.58,1.69,1.52,1.52,0,0,0,1-.36,2,2,0,0,0,.52-.68Zm-.85-1.76a1.49,1.49,0,0,0-1.46-1.3,1.51,1.51,0,0,0-1.46,1.3Z"/>
    <path class="cls-1" d="M502.46,244h.86v.54a1.38,1.38,0,0,1,1.13-.66,1.82,1.82,0,0,1,.77.2l-.41.78a.89.89,0,0,0-.5-.17.84.84,0,0,0-.7.31,2.15,2.15,0,0,0-.29,1.34V249h-.86Z"/>
  </g>
  <g>
    <path class="cls-1" d="M272.51,267.25h4.1V264h.89v8h-.89v-3.91h-4.1V272h-.89v-8h.89Z"/>
    <path class="cls-1" d="M279.78,264.53a.61.61,0,1,1-.61.61A.61.61,0,0,1,279.78,264.53Zm.43,2.49v5h-.86v-5Z"/>
    <path class="cls-1" d="M285.66,263.26h.86V272h-.86v-.7a2.1,2.1,0,0,1-1.7.84,2.63,2.63,0,0,1,0-5.24,2.06,2.06,0,0,1,1.7.83Zm-3.24,6.25a1.66,1.66,0,0,0,1.63,1.87,1.86,1.86,0,0,0,0-3.71A1.65,1.65,0,0,0,282.42,269.51Z"/>
    <path class="cls-1" d="M292,263.26h.86V272H292v-.7a2.1,2.1,0,0,1-1.7.84,2.63,2.63,0,0,1,0-5.24,2.06,2.06,0,0,1,1.7.83Zm-3.24,6.25a1.66,1.66,0,0,0,1.63,1.87,1.86,1.86,0,0,0,0-3.71A1.65,1.65,0,0,0,288.74,269.51Z"/>
    <path class="cls-1" d="M298.89,270.73a3,3,0,0,1-.61.8,2.42,2.42,0,0,1-1.66.61,2.38,2.38,0,0,1-2.46-2.6,2.41,2.41,0,0,1,2.41-2.64,2.23,2.23,0,0,1,1.88.91,3.33,3.33,0,0,1,.47,1.87H295a1.59,1.59,0,0,0,1.58,1.69,1.52,1.52,0,0,0,1-.36,2,2,0,0,0,.52-.68ZM298,269a1.49,1.49,0,0,0-1.46-1.3,1.51,1.51,0,0,0-1.46,1.3Z"/>
    <path class="cls-1" d="M300.24,267h.86v.58a1.76,1.76,0,0,1,1.43-.7,1.69,1.69,0,0,1,1.43.68,2.22,2.22,0,0,1,.29,1.33V272h-.86v-3.06a1.46,1.46,0,0,0-.23-.91,1,1,0,0,0-.82-.36,1.09,1.09,0,0,0-.87.38,2.1,2.1,0,0,0-.36,1.34V272h-.86Z"/>
    <path class="cls-1" d="M309.78,264v7.16H312V272h-3.09v-8Z"/>
    <path class="cls-1" d="M316.79,267h.86v5h-.86v-.7a2.1,2.1,0,0,1-1.7.84,2.63,2.63,0,0,1,0-5.24,2.06,2.06,0,0,1,1.7.83Zm-3.24,2.48a1.66,1.66,0,0,0,1.63,1.87,1.86,1.86,0,0,0,0-3.71A1.65,1.65,0,0,0,313.55,269.51Z"/>
    <path class="cls-1" d="M320.86,271.53,318.57,267h1l1.76,3.56,1.62-3.56h1l-3.66,7.74h-1Z"/>
    <path class="cls-1" d="M329.22,270.73a3,3,0,0,1-.61.8,2.42,2.42,0,0,1-1.66.61,2.38,2.38,0,0,1-2.46-2.6,2.41,2.41,0,0,1,2.41-2.64,2.23,2.23,0,0,1,1.88.91,3.33,3.33,0,0,1,.47,1.87h-3.87a1.59,1.59,0,0,0,1.58,1.69,1.52,1.52,0,0,0,1-.36,2,2,0,0,0,.52-.68Zm-.85-1.76a1.49,1.49,0,0,0-1.46-1.3,1.51,1.51,0,0,0-1.46,1.3Z"/>
    <path class="cls-1" d="M330.58,267h.86v.54a1.38,1.38,0,0,1,1.13-.66,1.82,1.82,0,0,1,.77.2l-.41.78a.89.89,0,0,0-.5-.17.84.84,0,0,0-.7.31,2.15,2.15,0,0,0-.29,1.34V272h-.86Z"/>
    <path class="cls-1" d="M336,268.17a.76.76,0,0,0-.7-.5.55.55,0,0,0-.6.56c0,.36.24.47.8.71a3,3,0,0,1,1.25.77,1.18,1.18,0,0,1,.26.8,1.58,1.58,0,0,1-1.71,1.63,1.78,1.78,0,0,1-1.74-1.27l.74-.31a1.13,1.13,0,0,0,1,.82.77.77,0,0,0,.82-.79c0-.47-.34-.62-.8-.83a3.25,3.25,0,0,1-1.21-.73,1.08,1.08,0,0,1-.23-.73,1.34,1.34,0,0,1,1.45-1.39,1.44,1.44,0,0,1,1.37.9Z"/>
  </g>
  <g>
    <path class="cls-1" d="M118.26,241v8h-.89v-8Z"/>
    <path class="cls-1" d="M120.11,244H121v.58a1.76,1.76,0,0,1,1.43-.7,1.69,1.69,0,0,1,1.43.68,2.22,2.22,0,0,1,.29,1.33V249h-.86v-3.06A1.46,1.46,0,0,0,123,245a1,1,0,0,0-.82-.36,1.09,1.09,0,0,0-.87.38,2.1,2.1,0,0,0-.36,1.34V249h-.86Z"/>
    <path class="cls-1" d="M126.62,251.76h-.86V244h.86v.7a2.14,2.14,0,0,1,1.7-.82,2.46,2.46,0,0,1,2.42,2.64,2.42,2.42,0,0,1-2.39,2.6,2.11,2.11,0,0,1-1.74-.84Zm3.24-5.22a1.71,1.71,0,0,0-1.63-1.87,1.73,1.73,0,0,0-1.66,1.86,1.7,1.7,0,0,0,1.67,1.85A1.68,1.68,0,0,0,129.85,246.54Z"/>
    <path class="cls-1" d="M132.93,246.93a1.69,1.69,0,0,0,.24,1.07,1.19,1.19,0,0,0,1.75,0,1.69,1.69,0,0,0,.24-1.07V244H136v3a2,2,0,0,1-.46,1.5,2.17,2.17,0,0,1-3,0,2,2,0,0,1-.46-1.5v-3h.86Z"/>
    <path class="cls-1" d="M138.54,244.81V249h-.86v-4.19h-.53V244h.53v-1.8h.86V244h.86v.79Z"/>
    <path class="cls-1" d="M144.12,241v7.16h2.21V249h-3.09v-8Z"/>
    <path class="cls-1" d="M151.13,244H152v5h-.86v-.7a2.1,2.1,0,0,1-1.7.84,2.63,2.63,0,0,1,0-5.24,2.06,2.06,0,0,1,1.7.83Zm-3.24,2.48a1.66,1.66,0,0,0,1.63,1.87,1.86,1.86,0,0,0,0-3.71A1.65,1.65,0,0,0,147.89,246.51Z"/>
    <path class="cls-1" d="M155.2,248.53,152.91,244h1l1.76,3.56,1.62-3.56h1l-3.66,7.74h-1Z"/>
    <path class="cls-1" d="M163.56,247.73a3,3,0,0,1-.61.8,2.42,2.42,0,0,1-1.66.61,2.38,2.38,0,0,1-2.46-2.6,2.41,2.41,0,0,1,2.41-2.64,2.23,2.23,0,0,1,1.88.91,3.34,3.34,0,0,1,.47,1.87h-3.87a1.59,1.59,0,0,0,1.58,1.69,1.52,1.52,0,0,0,1-.36,2,2,0,0,0,.52-.68Zm-.85-1.76a1.49,1.49,0,0,0-1.46-1.3,1.51,1.51,0,0,0-1.46,1.3Z"/>
    <path class="cls-1" d="M164.92,244h.86v.54a1.38,1.38,0,0,1,1.13-.66,1.82,1.82,0,0,1,.77.2l-.41.78a.89.89,0,0,0-.5-.17.84.84,0,0,0-.7.31,2.15,2.15,0,0,0-.29,1.34V249h-.86Z"/>
  </g>
</svg>
