<?xml version="1.0" encoding="UTF-8"?>
<svg xmlns="http://www.w3.org/2000/svg" xmlns:xlink="http://www.w3.org/1999/xlink" width="338pt" height="126pt" viewBox="0 0 338 126" version="1.1">
<g id="surface1">
<path style="fill-rule:nonzero;fill:rgb(40%,74.901961%,100%);fill-opacity:1;stroke-width:1;stroke-linecap:round;stroke-linejoin:round;stroke:rgb(0%,0%,0%);stroke-opacity:1;stroke-miterlimit:10;" d="M 63 108 L 81 108 L 81 126 L 63 126 Z M 63 108 " transform="matrix(1.25,0,0,1.25,-10,-55)"/>
<path style="fill-rule:nonzero;fill:rgb(100%,100%,100%);fill-opacity:1;stroke-width:1;stroke-linecap:round;stroke-linejoin:round;stroke:rgb(0%,0%,0%);stroke-opacity:1;stroke-miterlimit:10;" d="M 63 72 L 81 72 L 81 90 L 63 90 Z M 63 72 " transform="matrix(1.25,0,0,1.25,-10,-55)"/>
<path style="fill-rule:nonzero;fill:rgb(100%,100%,100%);fill-opacity:1;stroke-width:1;stroke-linecap:round;stroke-linejoin:round;stroke:rgb(0%,0%,0%);stroke-opacity:1;stroke-miterlimit:10;" d="M 63 90 L 81 90 L 81 108 L 63 108 Z M 63 90 " transform="matrix(1.25,0,0,1.25,-10,-55)"/>
<path style="fill-rule:nonzero;fill:rgb(100%,100%,100%);fill-opacity:1;stroke-width:1;stroke-linecap:round;stroke-linejoin:round;stroke:rgb(0%,0%,0%);stroke-opacity:1;stroke-miterlimit:10;" d="M 27 108 L 45 108 L 45 126 L 27 126 Z M 27 108 " transform="matrix(1.25,0,0,1.25,-10,-55)"/>
<path style="fill-rule:nonzero;fill:rgb(100%,100%,100%);fill-opacity:1;stroke-width:1;stroke-linecap:round;stroke-linejoin:round;stroke:rgb(0%,0%,0%);stroke-opacity:1;stroke-miterlimit:10;" d="M 45 108 L 63 108 L 63 126 L 45 126 Z M 45 108 " transform="matrix(1.25,0,0,1.25,-10,-55)"/>
<path style="fill-rule:nonzero;fill:rgb(69.803922%,85.098039%,100%);fill-opacity:1;stroke-width:1;stroke-linecap:round;stroke-linejoin:round;stroke:rgb(0%,0%,0%);stroke-opacity:1;stroke-miterlimit:10;" d="M 27 72 L 45 72 L 45 90 L 27 90 Z M 27 72 " transform="matrix(1.25,0,0,1.25,-10,-55)"/>
<path style="fill-rule:nonzero;fill:rgb(100%,100%,100%);fill-opacity:1;stroke-width:1;stroke-linecap:round;stroke-linejoin:round;stroke:rgb(0%,0%,0%);stroke-opacity:1;stroke-miterlimit:10;" d="M 27 90 L 45 90 L 45 108 L 27 108 Z M 27 90 " transform="matrix(1.25,0,0,1.25,-10,-55)"/>
<path style="fill-rule:nonzero;fill:rgb(100%,100%,100%);fill-opacity:1;stroke-width:1;stroke-linecap:round;stroke-linejoin:round;stroke:rgb(0%,0%,0%);stroke-opacity:1;stroke-miterlimit:10;" d="M 45 72 L 63 72 L 63 90 L 45 90 Z M 45 72 " transform="matrix(1.25,0,0,1.25,-10,-55)"/>
<path style="fill-rule:nonzero;fill:rgb(100%,100%,100%);fill-opacity:1;stroke-width:1;stroke-linecap:round;stroke-linejoin:round;stroke:rgb(0%,0%,0%);stroke-opacity:1;stroke-miterlimit:10;" d="M 45 90 L 63 90 L 63 108 L 45 108 Z M 45 90 " transform="matrix(1.25,0,0,1.25,-10,-55)"/>
<path style="fill-rule:nonzero;fill:rgb(40%,74.901961%,100%);fill-opacity:1;stroke-width:1;stroke-linecap:round;stroke-linejoin:round;stroke:rgb(0%,0%,0%);stroke-opacity:1;stroke-miterlimit:10;" d="M 54 117 L 72 117 L 72 135 L 54 135 Z M 54 117 " transform="matrix(1.25,0,0,1.25,-10,-55)"/>
<path style="fill-rule:nonzero;fill:rgb(100%,100%,100%);fill-opacity:1;stroke-width:1;stroke-linecap:round;stroke-linejoin:round;stroke:rgb(0%,0%,0%);stroke-opacity:1;stroke-miterlimit:10;" d="M 54 81 L 72 81 L 72 99 L 54 99 Z M 54 81 " transform="matrix(1.25,0,0,1.25,-10,-55)"/>
<path style="fill-rule:nonzero;fill:rgb(100%,100%,100%);fill-opacity:1;stroke-width:1;stroke-linecap:round;stroke-linejoin:round;stroke:rgb(0%,0%,0%);stroke-opacity:1;stroke-miterlimit:10;" d="M 54 99 L 72 99 L 72 117 L 54 117 Z M 54 99 " transform="matrix(1.25,0,0,1.25,-10,-55)"/>
<path style="fill-rule:nonzero;fill:rgb(100%,100%,100%);fill-opacity:1;stroke-width:1;stroke-linecap:round;stroke-linejoin:round;stroke:rgb(0%,0%,0%);stroke-opacity:1;stroke-miterlimit:10;" d="M 18 117 L 36 117 L 36 135 L 18 135 Z M 18 117 " transform="matrix(1.25,0,0,1.25,-10,-55)"/>
<path style="fill-rule:nonzero;fill:rgb(100%,100%,100%);fill-opacity:1;stroke-width:1;stroke-linecap:round;stroke-linejoin:round;stroke:rgb(0%,0%,0%);stroke-opacity:1;stroke-miterlimit:10;" d="M 36 117 L 54 117 L 54 135 L 36 135 Z M 36 117 " transform="matrix(1.25,0,0,1.25,-10,-55)"/>
<path style="fill-rule:nonzero;fill:rgb(69.803922%,85.098039%,100%);fill-opacity:1;stroke-width:1;stroke-linecap:round;stroke-linejoin:round;stroke:rgb(0%,0%,0%);stroke-opacity:1;stroke-miterlimit:10;" d="M 18 81 L 36 81 L 36 99 L 18 99 Z M 18 81 " transform="matrix(1.25,0,0,1.25,-10,-55)"/>
<path style="fill-rule:nonzero;fill:rgb(100%,100%,100%);fill-opacity:1;stroke-width:1;stroke-linecap:round;stroke-linejoin:round;stroke:rgb(0%,0%,0%);stroke-opacity:1;stroke-miterlimit:10;" d="M 18 99 L 36 99 L 36 117 L 18 117 Z M 18 99 " transform="matrix(1.25,0,0,1.25,-10,-55)"/>
<path style="fill-rule:nonzero;fill:rgb(100%,100%,100%);fill-opacity:1;stroke-width:1;stroke-linecap:round;stroke-linejoin:round;stroke:rgb(0%,0%,0%);stroke-opacity:1;stroke-miterlimit:10;" d="M 36 81 L 54 81 L 54 99 L 36 99 Z M 36 81 " transform="matrix(1.25,0,0,1.25,-10,-55)"/>
<path style="fill-rule:nonzero;fill:rgb(100%,100%,100%);fill-opacity:1;stroke-width:1;stroke-linecap:round;stroke-linejoin:round;stroke:rgb(0%,0%,0%);stroke-opacity:1;stroke-miterlimit:10;" d="M 36 99 L 54 99 L 54 117 L 36 117 Z M 36 99 " transform="matrix(1.25,0,0,1.25,-10,-55)"/>
<path style=" stroke:none;fill-rule:nonzero;fill:rgb(0%,0%,0%);fill-opacity:1;" d="M 280.628906 12.324219 C 280.628906 10.996094 280.988281 9.957031 281.703125 9.199219 C 282.417969 8.433594 283.34375 8.046875 284.476562 8.046875 C 285.21875 8.046875 285.890625 8.234375 286.488281 8.59375 C 287.085938 8.945312 287.542969 9.445312 287.855469 10.078125 C 288.167969 10.71875 288.324219 11.4375 288.324219 12.226562 C 288.324219 13.046875 288.160156 13.785156 287.835938 14.433594 C 287.511719 15.074219 287.042969 15.5625 286.429688 15.898438 C 285.832031 16.226562 285.179688 16.386719 284.476562 16.386719 C 283.722656 16.386719 283.042969 16.207031 282.445312 15.839844 C 281.847656 15.476562 281.390625 14.976562 281.078125 14.335938 C 280.777344 13.703125 280.628906 13.027344 280.628906 12.324219 Z M 281.722656 12.34375 C 281.722656 13.320312 281.984375 14.09375 282.503906 14.648438 C 283.023438 15.195312 283.683594 15.46875 284.476562 15.46875 C 285.269531 15.46875 285.929688 15.191406 286.449219 14.628906 C 286.96875 14.070312 287.230469 13.273438 287.230469 12.226562 C 287.230469 11.578125 287.121094 11.011719 286.898438 10.527344 C 286.675781 10.035156 286.351562 9.648438 285.921875 9.375 C 285.492188 9.101562 285.015625 8.964844 284.496094 8.964844 C 283.742188 8.964844 283.089844 9.226562 282.542969 9.746094 C 281.996094 10.269531 281.722656 11.132812 281.722656 12.34375 Z M 281.722656 12.34375 "/>
<path style=" stroke:none;fill-rule:nonzero;fill:rgb(0%,0%,0%);fill-opacity:1;" d="M 293.40625 16.25 L 293.40625 15.390625 C 292.945312 16.054688 292.332031 16.386719 291.550781 16.386719 C 291.207031 16.386719 290.890625 16.316406 290.59375 16.191406 C 290.289062 16.050781 290.066406 15.878906 289.910156 15.683594 C 289.761719 15.488281 289.664062 15.25 289.617188 14.960938 C 289.578125 14.765625 289.558594 14.453125 289.558594 14.023438 L 289.558594 10.410156 L 290.535156 10.410156 L 290.535156 13.652344 C 290.535156 14.175781 290.558594 14.523438 290.613281 14.6875 C 290.660156 14.953125 290.789062 15.15625 290.984375 15.3125 C 291.1875 15.460938 291.441406 15.527344 291.746094 15.527344 C 292.042969 15.527344 292.320312 15.460938 292.585938 15.3125 C 292.84375 15.15625 293.023438 14.953125 293.132812 14.6875 C 293.234375 14.429688 293.289062 14.042969 293.289062 13.535156 L 293.289062 10.410156 L 294.285156 10.410156 L 294.285156 16.25 Z M 293.40625 16.25 "/>
<path style=" stroke:none;fill-rule:nonzero;fill:rgb(0%,0%,0%);fill-opacity:1;" d="M 297.996094 15.371094 L 298.132812 16.230469 C 297.84375 16.292969 297.597656 16.328125 297.390625 16.328125 C 297.023438 16.328125 296.746094 16.269531 296.550781 16.152344 C 296.355469 16.035156 296.210938 15.890625 296.121094 15.703125 C 296.042969 15.523438 296.003906 15.136719 296.003906 14.550781 L 296.003906 11.191406 L 295.28125 11.191406 L 295.28125 10.410156 L 296.003906 10.410156 L 296.003906 8.964844 L 297 8.378906 L 297 10.410156 L 297.996094 10.410156 L 297.996094 11.191406 L 297 11.191406 L 297 14.589844 C 297 14.878906 297.011719 15.058594 297.039062 15.136719 C 297.078125 15.214844 297.136719 15.28125 297.214844 15.332031 C 297.292969 15.386719 297.402344 15.410156 297.546875 15.410156 C 297.664062 15.410156 297.8125 15.398438 297.996094 15.371094 Z M 297.996094 15.371094 "/>
<path style=" stroke:none;fill-rule:nonzero;fill:rgb(0%,0%,0%);fill-opacity:1;" d="M 298.953125 18.476562 L 298.953125 10.410156 L 299.851562 10.410156 L 299.851562 11.171875 C 300.058594 10.875 300.292969 10.65625 300.554688 10.507812 C 300.828125 10.367188 301.160156 10.292969 301.550781 10.292969 C 302.046875 10.292969 302.480469 10.425781 302.859375 10.683594 C 303.238281 10.933594 303.523438 11.289062 303.71875 11.757812 C 303.914062 12.226562 304.011719 12.734375 304.011719 13.28125 C 304.011719 13.882812 303.902344 14.421875 303.679688 14.902344 C 303.472656 15.386719 303.164062 15.757812 302.761719 16.015625 C 302.359375 16.257812 301.929688 16.386719 301.472656 16.386719 C 301.148438 16.386719 300.855469 16.3125 300.59375 16.171875 C 300.332031 16.03125 300.117188 15.855469 299.949219 15.644531 L 299.949219 18.476562 Z M 299.851562 13.359375 C 299.851562 14.117188 300 14.679688 300.300781 15.039062 C 300.613281 15.390625 300.984375 15.566406 301.414062 15.566406 C 301.84375 15.566406 302.214844 15.386719 302.527344 15.019531 C 302.851562 14.644531 303.015625 14.0625 303.015625 13.28125 C 303.015625 12.539062 302.859375 11.988281 302.546875 11.621094 C 302.246094 11.246094 301.882812 11.054688 301.453125 11.054688 C 301.035156 11.054688 300.664062 11.257812 300.339844 11.660156 C 300.015625 12.050781 299.851562 12.617188 299.851562 13.359375 Z M 299.851562 13.359375 "/>
<path style=" stroke:none;fill-rule:nonzero;fill:rgb(0%,0%,0%);fill-opacity:1;" d="M 309.035156 16.25 L 309.035156 15.390625 C 308.574219 16.054688 307.960938 16.386719 307.179688 16.386719 C 306.835938 16.386719 306.519531 16.316406 306.222656 16.191406 C 305.917969 16.050781 305.695312 15.878906 305.539062 15.683594 C 305.390625 15.488281 305.292969 15.25 305.246094 14.960938 C 305.207031 14.765625 305.1875 14.453125 305.1875 14.023438 L 305.1875 10.410156 L 306.164062 10.410156 L 306.164062 13.652344 C 306.164062 14.175781 306.1875 14.523438 306.242188 14.6875 C 306.289062 14.953125 306.417969 15.15625 306.613281 15.3125 C 306.816406 15.460938 307.070312 15.527344 307.375 15.527344 C 307.671875 15.527344 307.949219 15.460938 308.214844 15.3125 C 308.472656 15.15625 308.652344 14.953125 308.761719 14.6875 C 308.863281 14.429688 308.917969 14.042969 308.917969 13.535156 L 308.917969 10.410156 L 309.914062 10.410156 L 309.914062 16.25 Z M 309.035156 16.25 "/>
<path style=" stroke:none;fill-rule:nonzero;fill:rgb(0%,0%,0%);fill-opacity:1;" d="M 313.628906 15.371094 L 313.765625 16.230469 C 313.476562 16.292969 313.226562 16.328125 313.023438 16.328125 C 312.65625 16.328125 312.378906 16.269531 312.183594 16.152344 C 311.988281 16.035156 311.839844 15.890625 311.753906 15.703125 C 311.675781 15.523438 311.636719 15.136719 311.636719 14.550781 L 311.636719 11.191406 L 310.914062 11.191406 L 310.914062 10.410156 L 311.636719 10.410156 L 311.636719 8.964844 L 312.632812 8.378906 L 312.632812 10.410156 L 313.628906 10.410156 L 313.628906 11.191406 L 312.632812 11.191406 L 312.632812 14.589844 C 312.632812 14.878906 312.640625 15.058594 312.671875 15.136719 C 312.710938 15.214844 312.769531 15.28125 312.847656 15.332031 C 312.925781 15.386719 313.03125 15.410156 313.179688 15.410156 C 313.296875 15.410156 313.441406 15.398438 313.628906 15.371094 Z M 313.628906 15.371094 "/>
<path style=" stroke:none;fill-rule:nonzero;fill:rgb(0%,0%,0%);fill-opacity:1;" d="M 151.398438 16.25 L 151.398438 8.203125 L 152.472656 8.203125 L 152.472656 12.1875 L 156.476562 8.203125 L 157.902344 8.203125 L 154.542969 11.464844 L 158.058594 16.25 L 156.652344 16.25 L 153.78125 12.167969 L 152.472656 13.457031 L 152.472656 16.25 Z M 151.398438 16.25 "/>
<path style=" stroke:none;fill-rule:nonzero;fill:rgb(0%,0%,0%);fill-opacity:1;" d="M 162.808594 14.375 L 163.84375 14.492188 C 163.671875 15.09375 163.363281 15.5625 162.925781 15.898438 C 162.496094 16.226562 161.9375 16.386719 161.265625 16.386719 C 160.414062 16.386719 159.742188 16.128906 159.234375 15.605469 C 158.734375 15.074219 158.492188 14.332031 158.492188 13.378906 C 158.492188 12.402344 158.746094 11.648438 159.253906 11.113281 C 159.761719 10.566406 160.414062 10.292969 161.226562 10.292969 C 162.007812 10.292969 162.636719 10.5625 163.121094 11.09375 C 163.613281 11.617188 163.863281 12.359375 163.863281 13.320312 C 163.863281 13.390625 163.863281 13.476562 163.863281 13.59375 L 159.507812 13.59375 C 159.546875 14.234375 159.726562 14.722656 160.054688 15.058594 C 160.375 15.398438 160.785156 15.566406 161.285156 15.566406 C 161.644531 15.566406 161.953125 15.476562 162.203125 15.292969 C 162.460938 15.097656 162.660156 14.796875 162.808594 14.375 Z M 159.566406 12.773438 L 162.828125 12.773438 C 162.789062 12.28125 162.660156 11.910156 162.457031 11.660156 C 162.144531 11.285156 161.734375 11.09375 161.226562 11.09375 C 160.765625 11.09375 160.386719 11.25 160.074219 11.5625 C 159.769531 11.867188 159.605469 12.265625 159.566406 12.773438 Z M 159.566406 12.773438 "/>
<path style=" stroke:none;fill-rule:nonzero;fill:rgb(0%,0%,0%);fill-opacity:1;" d="M 165.0625 16.25 L 165.0625 10.410156 L 165.960938 10.410156 L 165.960938 11.308594 C 166.179688 10.894531 166.390625 10.621094 166.585938 10.488281 C 166.78125 10.359375 166.996094 10.292969 167.230469 10.292969 C 167.550781 10.292969 167.894531 10.398438 168.246094 10.605469 L 167.894531 11.523438 C 167.660156 11.382812 167.414062 11.308594 167.171875 11.308594 C 166.960938 11.308594 166.765625 11.375 166.585938 11.503906 C 166.414062 11.636719 166.292969 11.816406 166.214844 12.050781 C 166.105469 12.402344 166.058594 12.789062 166.058594 13.203125 L 166.058594 16.25 Z M 165.0625 16.25 "/>
<path style=" stroke:none;fill-rule:nonzero;fill:rgb(0%,0%,0%);fill-opacity:1;" d="M 168.828125 16.25 L 168.828125 10.410156 L 169.726562 10.410156 L 169.726562 11.25 C 170.140625 10.617188 170.761719 10.292969 171.582031 10.292969 C 171.933594 10.292969 172.25 10.359375 172.539062 10.488281 C 172.835938 10.605469 173.054688 10.773438 173.203125 10.976562 C 173.34375 11.171875 173.445312 11.414062 173.515625 11.699219 C 173.554688 11.882812 173.574219 12.203125 173.574219 12.65625 L 173.574219 16.25 L 172.578125 16.25 L 172.578125 12.695312 C 172.578125 12.296875 172.539062 11.992188 172.460938 11.796875 C 172.382812 11.601562 172.246094 11.445312 172.050781 11.328125 C 171.855469 11.203125 171.625 11.132812 171.367188 11.132812 C 170.945312 11.132812 170.585938 11.269531 170.273438 11.542969 C 169.96875 11.804688 169.824219 12.3125 169.824219 13.066406 L 169.824219 16.25 Z M 168.828125 16.25 "/>
<path style=" stroke:none;fill-rule:nonzero;fill:rgb(0%,0%,0%);fill-opacity:1;" d="M 179.070312 14.375 L 180.105469 14.492188 C 179.933594 15.09375 179.625 15.5625 179.1875 15.898438 C 178.757812 16.226562 178.199219 16.386719 177.527344 16.386719 C 176.675781 16.386719 176.003906 16.128906 175.496094 15.605469 C 174.996094 15.074219 174.753906 14.332031 174.753906 13.378906 C 174.753906 12.402344 175.007812 11.648438 175.515625 11.113281 C 176.023438 10.566406 176.675781 10.292969 177.488281 10.292969 C 178.269531 10.292969 178.898438 10.5625 179.382812 11.09375 C 179.875 11.617188 180.125 12.359375 180.125 13.320312 C 180.125 13.390625 180.125 13.476562 180.125 13.59375 L 175.769531 13.59375 C 175.808594 14.234375 175.988281 14.722656 176.316406 15.058594 C 176.636719 15.398438 177.046875 15.566406 177.546875 15.566406 C 177.90625 15.566406 178.214844 15.476562 178.464844 15.292969 C 178.722656 15.097656 178.921875 14.796875 179.070312 14.375 Z M 175.828125 12.773438 L 179.089844 12.773438 C 179.050781 12.28125 178.921875 11.910156 178.71875 11.660156 C 178.40625 11.285156 177.996094 11.09375 177.488281 11.09375 C 177.027344 11.09375 176.648438 11.25 176.335938 11.5625 C 176.03125 11.867188 175.867188 12.265625 175.828125 12.773438 Z M 175.828125 12.773438 "/>
<path style=" stroke:none;fill-rule:nonzero;fill:rgb(0%,0%,0%);fill-opacity:1;" d="M 181.320312 16.25 L 181.320312 8.203125 L 182.296875 8.203125 L 182.296875 16.25 Z M 181.320312 16.25 "/>
<path style=" stroke:none;fill-rule:nonzero;fill:rgb(0%,0%,0%);fill-opacity:1;" d="M 39.792969 16.25 L 39.792969 8.203125 L 40.847656 8.203125 L 40.847656 16.25 Z M 39.792969 16.25 "/>
<path style=" stroke:none;fill-rule:nonzero;fill:rgb(0%,0%,0%);fill-opacity:1;" d="M 42.605469 16.25 L 42.605469 10.410156 L 43.503906 10.410156 L 43.503906 11.25 C 43.921875 10.617188 44.539062 10.292969 45.359375 10.292969 C 45.710938 10.292969 46.03125 10.359375 46.316406 10.488281 C 46.617188 10.605469 46.835938 10.773438 46.980469 10.976562 C 47.125 11.171875 47.226562 11.414062 47.292969 11.699219 C 47.332031 11.882812 47.351562 12.203125 47.351562 12.65625 L 47.351562 16.25 L 46.355469 16.25 L 46.355469 12.695312 C 46.355469 12.296875 46.316406 11.992188 46.238281 11.796875 C 46.160156 11.601562 46.023438 11.445312 45.828125 11.328125 C 45.632812 11.203125 45.40625 11.132812 45.144531 11.132812 C 44.726562 11.132812 44.363281 11.269531 44.050781 11.542969 C 43.75 11.804688 43.601562 12.3125 43.601562 13.066406 L 43.601562 16.25 Z M 42.605469 16.25 "/>
<path style=" stroke:none;fill-rule:nonzero;fill:rgb(0%,0%,0%);fill-opacity:1;" d="M 48.859375 18.476562 L 48.859375 10.410156 L 49.757812 10.410156 L 49.757812 11.171875 C 49.964844 10.875 50.199219 10.65625 50.460938 10.507812 C 50.734375 10.367188 51.066406 10.292969 51.457031 10.292969 C 51.949219 10.292969 52.386719 10.425781 52.765625 10.683594 C 53.140625 10.933594 53.429688 11.289062 53.625 11.757812 C 53.820312 12.226562 53.917969 12.734375 53.917969 13.28125 C 53.917969 13.882812 53.804688 14.421875 53.585938 14.902344 C 53.375 15.386719 53.070312 15.757812 52.667969 16.015625 C 52.261719 16.257812 51.832031 16.386719 51.378906 16.386719 C 51.050781 16.386719 50.757812 16.3125 50.5 16.171875 C 50.238281 16.03125 50.023438 15.855469 49.855469 15.644531 L 49.855469 18.476562 Z M 49.757812 13.359375 C 49.757812 14.117188 49.90625 14.679688 50.207031 15.039062 C 50.519531 15.390625 50.890625 15.566406 51.320312 15.566406 C 51.75 15.566406 52.121094 15.386719 52.433594 15.019531 C 52.757812 14.644531 52.921875 14.0625 52.921875 13.28125 C 52.921875 12.539062 52.765625 11.988281 52.453125 11.621094 C 52.152344 11.246094 51.789062 11.054688 51.359375 11.054688 C 50.941406 11.054688 50.570312 11.257812 50.246094 11.660156 C 49.917969 12.050781 49.757812 12.617188 49.757812 13.359375 Z M 49.757812 13.359375 "/>
<path style=" stroke:none;fill-rule:nonzero;fill:rgb(0%,0%,0%);fill-opacity:1;" d="M 58.941406 16.25 L 58.941406 15.390625 C 58.480469 16.054688 57.867188 16.386719 57.085938 16.386719 C 56.742188 16.386719 56.425781 16.316406 56.128906 16.191406 C 55.824219 16.050781 55.601562 15.878906 55.445312 15.683594 C 55.296875 15.488281 55.199219 15.25 55.152344 14.960938 C 55.113281 14.765625 55.09375 14.453125 55.09375 14.023438 L 55.09375 10.410156 L 56.070312 10.410156 L 56.070312 13.652344 C 56.070312 14.175781 56.09375 14.523438 56.148438 14.6875 C 56.195312 14.953125 56.324219 15.15625 56.519531 15.3125 C 56.722656 15.460938 56.976562 15.527344 57.28125 15.527344 C 57.578125 15.527344 57.855469 15.460938 58.121094 15.3125 C 58.378906 15.15625 58.558594 14.953125 58.667969 14.6875 C 58.769531 14.429688 58.824219 14.042969 58.824219 13.535156 L 58.824219 10.410156 L 59.820312 10.410156 L 59.820312 16.25 Z M 58.941406 16.25 "/>
<path style=" stroke:none;fill-rule:nonzero;fill:rgb(0%,0%,0%);fill-opacity:1;" d="M 63.53125 15.371094 L 63.667969 16.230469 C 63.382812 16.292969 63.132812 16.328125 62.925781 16.328125 C 62.5625 16.328125 62.28125 16.269531 62.085938 16.152344 C 61.890625 16.035156 61.746094 15.890625 61.65625 15.703125 C 61.578125 15.523438 61.539062 15.136719 61.539062 14.550781 L 61.539062 11.191406 L 60.816406 11.191406 L 60.816406 10.410156 L 61.539062 10.410156 L 61.539062 8.964844 L 62.535156 8.378906 L 62.535156 10.410156 L 63.53125 10.410156 L 63.53125 11.191406 L 62.535156 11.191406 L 62.535156 14.589844 C 62.535156 14.878906 62.546875 15.058594 62.574219 15.136719 C 62.613281 15.214844 62.671875 15.28125 62.75 15.332031 C 62.828125 15.386719 62.9375 15.410156 63.082031 15.410156 C 63.199219 15.410156 63.347656 15.398438 63.53125 15.371094 Z M 63.53125 15.371094 "/>
<path style="fill-rule:nonzero;fill:rgb(40%,74.901961%,100%);fill-opacity:1;stroke-width:1;stroke-linecap:round;stroke-linejoin:round;stroke:rgb(0%,0%,0%);stroke-opacity:1;stroke-miterlimit:10;" d="M 45 126 L 63 126 L 63 144 L 45 144 Z M 45 126 " transform="matrix(1.25,0,0,1.25,-10,-55)"/>
<path style="fill-rule:nonzero;fill:rgb(100%,100%,100%);fill-opacity:1;stroke-width:1;stroke-linecap:round;stroke-linejoin:round;stroke:rgb(0%,0%,0%);stroke-opacity:1;stroke-miterlimit:10;" d="M 45 90 L 63 90 L 63 108 L 45 108 Z M 45 90 " transform="matrix(1.25,0,0,1.25,-10,-55)"/>
<path style="fill-rule:nonzero;fill:rgb(100%,100%,100%);fill-opacity:1;stroke-width:1;stroke-linecap:round;stroke-linejoin:round;stroke:rgb(0%,0%,0%);stroke-opacity:1;stroke-miterlimit:10;" d="M 45 108 L 63 108 L 63 126 L 45 126 Z M 45 108 " transform="matrix(1.25,0,0,1.25,-10,-55)"/>
<path style="fill-rule:nonzero;fill:rgb(100%,100%,100%);fill-opacity:1;stroke-width:1;stroke-linecap:round;stroke-linejoin:round;stroke:rgb(0%,0%,0%);stroke-opacity:1;stroke-miterlimit:10;" d="M 9 126 L 27 126 L 27 144 L 9 144 Z M 9 126 " transform="matrix(1.25,0,0,1.25,-10,-55)"/>
<path style="fill-rule:nonzero;fill:rgb(100%,100%,100%);fill-opacity:1;stroke-width:1;stroke-linecap:round;stroke-linejoin:round;stroke:rgb(0%,0%,0%);stroke-opacity:1;stroke-miterlimit:10;" d="M 27 126 L 45 126 L 45 144 L 27 144 Z M 27 126 " transform="matrix(1.25,0,0,1.25,-10,-55)"/>
<path style="fill-rule:nonzero;fill:rgb(69.803922%,85.098039%,100%);fill-opacity:1;stroke-width:1;stroke-linecap:round;stroke-linejoin:round;stroke:rgb(0%,0%,0%);stroke-opacity:1;stroke-miterlimit:10;" d="M 9 90 L 27 90 L 27 108 L 9 108 Z M 9 90 " transform="matrix(1.25,0,0,1.25,-10,-55)"/>
<path style="fill-rule:nonzero;fill:rgb(100%,100%,100%);fill-opacity:1;stroke-width:1;stroke-linecap:round;stroke-linejoin:round;stroke:rgb(0%,0%,0%);stroke-opacity:1;stroke-miterlimit:10;" d="M 9 108 L 27 108 L 27 126 L 9 126 Z M 9 108 " transform="matrix(1.25,0,0,1.25,-10,-55)"/>
<path style="fill-rule:nonzero;fill:rgb(100%,100%,100%);fill-opacity:1;stroke-width:1;stroke-linecap:round;stroke-linejoin:round;stroke:rgb(0%,0%,0%);stroke-opacity:1;stroke-miterlimit:10;" d="M 27 90 L 45 90 L 45 108 L 27 108 Z M 27 90 " transform="matrix(1.25,0,0,1.25,-10,-55)"/>
<path style="fill-rule:nonzero;fill:rgb(100%,100%,100%);fill-opacity:1;stroke-width:1;stroke-linecap:round;stroke-linejoin:round;stroke:rgb(0%,0%,0%);stroke-opacity:1;stroke-miterlimit:10;" d="M 27 108 L 45 108 L 45 126 L 27 126 Z M 27 108 " transform="matrix(1.25,0,0,1.25,-10,-55)"/>
<path style=" stroke:none;fill-rule:nonzero;fill:rgb(0%,0%,0%);fill-opacity:1;" d="M 114.300781 78.214844 L 114.808594 76.652344 C 115.964844 77.058594 116.808594 77.410156 117.347656 77.707031 C 117.199219 76.394531 117.132812 75.480469 117.132812 74.972656 L 118.714844 74.972656 C 118.683594 75.703125 118.601562 76.613281 118.460938 77.707031 C 119.210938 77.332031 120.082031 76.980469 121.058594 76.652344 L 121.566406 78.214844 C 120.628906 78.515625 119.714844 78.71875 118.832031 78.820312 C 119.269531 79.210938 119.90625 79.902344 120.726562 80.890625 L 119.398438 81.828125 C 118.96875 81.257812 118.464844 80.46875 117.894531 79.464844 C 117.347656 80.507812 116.867188 81.296875 116.46875 81.828125 L 115.160156 80.890625 C 116.019531 79.851562 116.628906 79.160156 116.996094 78.820312 C 116.042969 78.640625 115.144531 78.4375 114.300781 78.214844 Z M 114.300781 78.214844 "/>
<path style=" stroke:none;fill-rule:nonzero;fill:rgb(0%,0%,0%);fill-opacity:1;" d="M 228.523438 77.660156 L 217.878906 77.660156 L 217.878906 75.824219 L 228.523438 75.824219 Z M 228.523438 82.542969 L 217.878906 82.542969 L 217.878906 80.707031 L 228.523438 80.707031 Z M 228.523438 82.542969 "/>
<path style="fill-rule:nonzero;fill:rgb(69.803922%,85.098039%,100%);fill-opacity:1;stroke-width:1;stroke-linecap:round;stroke-linejoin:round;stroke:rgb(0%,0%,0%);stroke-opacity:1;stroke-miterlimit:10;" d="M 140.96875 72 L 158.96875 72 L 158.96875 90 L 140.96875 90 Z M 140.96875 72 " transform="matrix(1.25,0,0,1.25,-10,-55)"/>
<path style="fill-rule:nonzero;fill:rgb(69.803922%,85.098039%,100%);fill-opacity:1;stroke-width:1;stroke-linecap:round;stroke-linejoin:round;stroke:rgb(0%,0%,0%);stroke-opacity:1;stroke-miterlimit:10;" d="M 131.96875 81 L 149.96875 81 L 149.96875 99 L 131.96875 99 Z M 131.96875 81 " transform="matrix(1.25,0,0,1.25,-10,-55)"/>
<path style="fill-rule:nonzero;fill:rgb(69.803922%,85.098039%,100%);fill-opacity:1;stroke-width:1;stroke-linecap:round;stroke-linejoin:round;stroke:rgb(0%,0%,0%);stroke-opacity:1;stroke-miterlimit:10;" d="M 122.96875 90 L 140.96875 90 L 140.96875 108 L 122.96875 108 Z M 122.96875 90 " transform="matrix(1.25,0,0,1.25,-10,-55)"/>
<path style="fill-rule:nonzero;fill:rgb(40%,74.901961%,100%);fill-opacity:1;stroke-width:1;stroke-linecap:round;stroke-linejoin:round;stroke:rgb(0%,0%,0%);stroke-opacity:1;stroke-miterlimit:10;" d="M 140.96875 108 L 158.96875 108 L 158.96875 126 L 140.96875 126 Z M 140.96875 108 " transform="matrix(1.25,0,0,1.25,-10,-55)"/>
<path style="fill-rule:nonzero;fill:rgb(40%,74.901961%,100%);fill-opacity:1;stroke-width:1;stroke-linecap:round;stroke-linejoin:round;stroke:rgb(0%,0%,0%);stroke-opacity:1;stroke-miterlimit:10;" d="M 131.96875 117 L 149.96875 117 L 149.96875 135 L 131.96875 135 Z M 131.96875 117 " transform="matrix(1.25,0,0,1.25,-10,-55)"/>
<path style="fill-rule:nonzero;fill:rgb(40%,74.901961%,100%);fill-opacity:1;stroke-width:1;stroke-linecap:round;stroke-linejoin:round;stroke:rgb(0%,0%,0%);stroke-opacity:1;stroke-miterlimit:10;" d="M 122.96875 126 L 140.96875 126 L 140.96875 144 L 122.96875 144 Z M 122.96875 126 " transform="matrix(1.25,0,0,1.25,-10,-55)"/>
<path style="fill-rule:nonzero;fill:rgb(40%,74.901961%,100%);fill-opacity:1;stroke-width:1;stroke-linecap:round;stroke-linejoin:round;stroke:rgb(0%,0%,0%);stroke-opacity:1;stroke-miterlimit:10;" d="M 258.575 113.3625 L 276.575 113.3625 L 276.575 131.3625 L 258.575 131.3625 Z M 258.575 113.3625 " transform="matrix(1.25,0,0,1.25,-10,-55)"/>
<path style="fill-rule:nonzero;fill:rgb(100%,100%,100%);fill-opacity:1;stroke-width:1;stroke-linecap:round;stroke-linejoin:round;stroke:rgb(0%,0%,0%);stroke-opacity:1;stroke-miterlimit:10;" d="M 258.575 77.3625 L 276.575 77.3625 L 276.575 95.3625 L 258.575 95.3625 Z M 258.575 77.3625 " transform="matrix(1.25,0,0,1.25,-10,-55)"/>
<path style="fill-rule:nonzero;fill:rgb(100%,100%,100%);fill-opacity:1;stroke-width:1;stroke-linecap:round;stroke-linejoin:round;stroke:rgb(0%,0%,0%);stroke-opacity:1;stroke-miterlimit:10;" d="M 258.575 95.3625 L 276.575 95.3625 L 276.575 113.3625 L 258.575 113.3625 Z M 258.575 95.3625 " transform="matrix(1.25,0,0,1.25,-10,-55)"/>
<path style="fill-rule:nonzero;fill:rgb(100%,100%,100%);fill-opacity:1;stroke-width:1;stroke-linecap:round;stroke-linejoin:round;stroke:rgb(0%,0%,0%);stroke-opacity:1;stroke-miterlimit:10;" d="M 222.575 113.3625 L 240.575 113.3625 L 240.575 131.3625 L 222.575 131.3625 Z M 222.575 113.3625 " transform="matrix(1.25,0,0,1.25,-10,-55)"/>
<path style="fill-rule:nonzero;fill:rgb(100%,100%,100%);fill-opacity:1;stroke-width:1;stroke-linecap:round;stroke-linejoin:round;stroke:rgb(0%,0%,0%);stroke-opacity:1;stroke-miterlimit:10;" d="M 240.575 113.3625 L 258.575 113.3625 L 258.575 131.3625 L 240.575 131.3625 Z M 240.575 113.3625 " transform="matrix(1.25,0,0,1.25,-10,-55)"/>
<path style="fill-rule:nonzero;fill:rgb(100%,100%,100%);fill-opacity:1;stroke-width:1;stroke-linecap:round;stroke-linejoin:round;stroke:rgb(0%,0%,0%);stroke-opacity:1;stroke-miterlimit:10;" d="M 222.575 77.3625 L 240.575 77.3625 L 240.575 95.3625 L 222.575 95.3625 Z M 222.575 77.3625 " transform="matrix(1.25,0,0,1.25,-10,-55)"/>
<path style="fill-rule:nonzero;fill:rgb(100%,100%,100%);fill-opacity:1;stroke-width:1;stroke-linecap:round;stroke-linejoin:round;stroke:rgb(0%,0%,0%);stroke-opacity:1;stroke-miterlimit:10;" d="M 222.575 95.3625 L 240.575 95.3625 L 240.575 113.3625 L 222.575 113.3625 Z M 222.575 95.3625 " transform="matrix(1.25,0,0,1.25,-10,-55)"/>
<path style="fill-rule:nonzero;fill:rgb(100%,100%,100%);fill-opacity:1;stroke-width:1;stroke-linecap:round;stroke-linejoin:round;stroke:rgb(0%,0%,0%);stroke-opacity:1;stroke-miterlimit:10;" d="M 240.575 77.3625 L 258.575 77.3625 L 258.575 95.3625 L 240.575 95.3625 Z M 240.575 77.3625 " transform="matrix(1.25,0,0,1.25,-10,-55)"/>
<path style="fill-rule:nonzero;fill:rgb(100%,100%,100%);fill-opacity:1;stroke-width:1;stroke-linecap:round;stroke-linejoin:round;stroke:rgb(0%,0%,0%);stroke-opacity:1;stroke-miterlimit:10;" d="M 240.575 95.3625 L 258.575 95.3625 L 258.575 113.3625 L 240.575 113.3625 Z M 240.575 95.3625 " transform="matrix(1.25,0,0,1.25,-10,-55)"/>
<path style="fill-rule:nonzero;fill:rgb(100%,100%,100%);fill-opacity:1;stroke-width:1;stroke-linecap:round;stroke-linejoin:round;stroke:rgb(0%,0%,0%);stroke-opacity:1;stroke-miterlimit:10;" d="M 249.575 122.3625 L 267.575 122.3625 L 267.575 140.3625 L 249.575 140.3625 Z M 249.575 122.3625 " transform="matrix(1.25,0,0,1.25,-10,-55)"/>
<path style="fill-rule:nonzero;fill:rgb(100%,100%,100%);fill-opacity:1;stroke-width:1;stroke-linecap:round;stroke-linejoin:round;stroke:rgb(0%,0%,0%);stroke-opacity:1;stroke-miterlimit:10;" d="M 249.575 86.3625 L 267.575 86.3625 L 267.575 104.3625 L 249.575 104.3625 Z M 249.575 86.3625 " transform="matrix(1.25,0,0,1.25,-10,-55)"/>
<path style="fill-rule:nonzero;fill:rgb(100%,100%,100%);fill-opacity:1;stroke-width:1;stroke-linecap:round;stroke-linejoin:round;stroke:rgb(0%,0%,0%);stroke-opacity:1;stroke-miterlimit:10;" d="M 249.575 104.3625 L 267.575 104.3625 L 267.575 122.3625 L 249.575 122.3625 Z M 249.575 104.3625 " transform="matrix(1.25,0,0,1.25,-10,-55)"/>
<path style="fill-rule:nonzero;fill:rgb(100%,100%,100%);fill-opacity:1;stroke-width:1;stroke-linecap:round;stroke-linejoin:round;stroke:rgb(0%,0%,0%);stroke-opacity:1;stroke-miterlimit:10;" d="M 213.575 122.3625 L 231.575 122.3625 L 231.575 140.3625 L 213.575 140.3625 Z M 213.575 122.3625 " transform="matrix(1.25,0,0,1.25,-10,-55)"/>
<path style="fill-rule:nonzero;fill:rgb(100%,100%,100%);fill-opacity:1;stroke-width:1;stroke-linecap:round;stroke-linejoin:round;stroke:rgb(0%,0%,0%);stroke-opacity:1;stroke-miterlimit:10;" d="M 231.575 122.3625 L 249.575 122.3625 L 249.575 140.3625 L 231.575 140.3625 Z M 231.575 122.3625 " transform="matrix(1.25,0,0,1.25,-10,-55)"/>
<path style="fill-rule:nonzero;fill:rgb(69.803922%,85.098039%,100%);fill-opacity:1;stroke-width:1;stroke-linecap:round;stroke-linejoin:round;stroke:rgb(0%,0%,0%);stroke-opacity:1;stroke-miterlimit:10;" d="M 213.575 86.3625 L 231.575 86.3625 L 231.575 104.3625 L 213.575 104.3625 Z M 213.575 86.3625 " transform="matrix(1.25,0,0,1.25,-10,-55)"/>
<path style="fill-rule:nonzero;fill:rgb(100%,100%,100%);fill-opacity:1;stroke-width:1;stroke-linecap:round;stroke-linejoin:round;stroke:rgb(0%,0%,0%);stroke-opacity:1;stroke-miterlimit:10;" d="M 213.575 104.3625 L 231.575 104.3625 L 231.575 122.3625 L 213.575 122.3625 Z M 213.575 104.3625 " transform="matrix(1.25,0,0,1.25,-10,-55)"/>
<path style="fill-rule:nonzero;fill:rgb(100%,100%,100%);fill-opacity:1;stroke-width:1;stroke-linecap:round;stroke-linejoin:round;stroke:rgb(0%,0%,0%);stroke-opacity:1;stroke-miterlimit:10;" d="M 231.575 86.3625 L 249.575 86.3625 L 249.575 104.3625 L 231.575 104.3625 Z M 231.575 86.3625 " transform="matrix(1.25,0,0,1.25,-10,-55)"/>
<path style="fill-rule:nonzero;fill:rgb(100%,100%,100%);fill-opacity:1;stroke-width:1;stroke-linecap:round;stroke-linejoin:round;stroke:rgb(0%,0%,0%);stroke-opacity:1;stroke-miterlimit:10;" d="M 231.575 104.3625 L 249.575 104.3625 L 249.575 122.3625 L 231.575 122.3625 Z M 231.575 104.3625 " transform="matrix(1.25,0,0,1.25,-10,-55)"/>
</g>
</svg>
